<?xml version="1.0" encoding="UTF-8" standalone="no"?>
<svg
   width="1280"
   height="832"
   viewBox="0 0 1280 832"
   fill="none"
   version="1.1"
   id="svg3"
   sodipodi:docname="logo 1.svg"
   inkscape:export-filename="logo 1.svg"
   inkscape:export-xdpi="96"
   inkscape:export-ydpi="96"
   inkscape:version="1.3.2 (091e20e, 2023-11-25, custom)"
   xmlns:inkscape="http://www.inkscape.org/namespaces/inkscape"
   xmlns:sodipodi="http://sodipodi.sourceforge.net/DTD/sodipodi-0.dtd"
   xmlns="http://www.w3.org/2000/svg"
   xmlns:svg="http://www.w3.org/2000/svg">
  <sodipodi:namedview
     id="namedview3"
     pagecolor="#ffffff"
     bordercolor="#000000"
     borderopacity="0.25"
     inkscape:showpageshadow="2"
     inkscape:pageopacity="0.0"
     inkscape:pagecheckerboard="0"
     inkscape:deskcolor="#d1d1d1"
     inkscape:zoom="0.5"
     inkscape:cx="53"
     inkscape:cy="383"
     inkscape:window-width="2560"
     inkscape:window-height="1367"
     inkscape:window-x="1912"
     inkscape:window-y="-8"
     inkscape:window-maximized="1"
     inkscape:current-layer="g3" />
  <g
     clip-path="url(#clip0_2618_2)"
     id="g3">
    <path
       d="M 0,416 V 0 h 158 c 117.1,0 157.9,0.3 157.8,1.1 -0.2,0.8 5.2,2 15.2,3.5 89.8,13.3 163.2,49.3 223,109.4 39.7,39.9 69.9,89.4 90.8,149.2 7,20 15.4,53.5 18.7,74.8 0.4,2.5 1.1,5.1 1.4,5.8 1.3,2.4 2.1,-75.5 2.1,-211 V 0 h 2.5 2.5 l -0.6,143.7 c -0.3,79.1 -0.9,158.9 -1.3,177.3 -0.5,26.2 -0.3,35.9 0.8,44.5 1.1,8.1 1.5,23.5 1.5,58 0.1,49.6 -0.2,54.7 -5.5,90.5 -8.1,54.1 -25.8,109.3 -47.7,148.5 -27.2,48.8 -59.5,84.3 -102.7,113 -35,23.3 -70.5,37.8 -117.9,48.5 -7.1,1.5 -13.2,3.4 -13.6,4.1 -0.6,0.9 -4.1,1 -14.1,0.5 -13.8,-0.7 -34.6,0.7 -36.4,2.5 C 334,831.6 270,832 166.8,832 H 0 Z m 297.3,253.4 c 52.8,-5.8 95.5,-24.4 128.9,-56.2 57.9,-55 84.6,-150.9 69.3,-248.7 C 479.7,263.4 419.2,192.1 329,168.1 c -27.3,-7.3 -28.4,-7.4 -92.9,-7.8 l -58.4,-0.4 0.6,130.7 c 0.4,71.9 0.7,186.9 0.7,255.6 V 671 h 52 c 40.6,0 55.2,-0.3 66.3,-1.6 z"
       fill="#46CDB7"
       id="path1"
       style="fill:#e6e6e6" />
    <path
       d="M836.7 311.3C836.3 311 836 240.8 836 155.3C836 0.7 836 0 838 0C840 0 840 0.8 840.3 140.8C840.4 218.2 840.5 287.2 840.4 294.3C840.4 301.3 840.7 307 841 307C841.3 307 842.1 306.5 842.8 305.8C843.7 304.9 844 305.4 844 308.3C844 311.8 843.8 312 840.7 312C838.8 312 837 311.7 836.7 311.3Z"
       fill="#46CDB7"
       id="path2" />
    <path
       d="m 383.18492,830.6384 c -19.54506,-0.0407 -45.48866,0.65377 -48.38866,0.65377 -2.30381,-0.032 0.17336,-0.95743 5.03637,-1.67661 10.33524,-1.52843 31.17519,-3.66352 35.86737,-4.61556 47.5,-9.1 77.9,-19.1 111.3,-36.7 65.6,-34.4 116.4,-91.8 146.6,-165.4 17.1,-41.9 27.2,-83.4 34.1,-140.4 2.4,-20.5 2.5,-95.4 0.1,-114.5 -1.3,-10.4 -1.4,-18 -0.7,-45.5 0.4,-18.1 0.9,-78 1,-133 0.2,-55 0.5,-120.1002 0.7,-144.7002 l 0.3,-44.79999171 h 85 84.9 L 839.1,140.3 c 0,77.1 0,146.3 -0.1,153.9 -0.1,9.7 0.2,13.8 1.1,14.4 0.8,0.4 1,0.3 0.5,-0.4 -0.4,-0.7 -0.3,-1.2 0.2,-1.2 0.5,0 6,-6.6 12.3,-14.7 6.2,-8.2 16.5,-21.5 22.9,-29.8 6.4,-8.2 21,-27.1 32.5,-42 11.5,-14.8 26.1,-33.7 32.4,-41.9 6.4,-8.1 14.1,-18 17.1,-22 3,-3.9 14.9,-19.3 26.4,-34.1 11.5,-14.9 25.3,-32.6002 30.6,-39.5002 5.3,-6.9 19.8,-25.5 32.1,-41.5 12.4,-15.9 24.6,-31.79999 27.2,-35.19999 l 4.8,-6.30000171 h 100.5 c 111.6,0 104.3,-0.50000029 96.4,6.60000171 -4.8,4.29999 -9.4,10.19999 -69.5,88.89999 C 1181.3,128.5 1151.8,167 1141,181 c -10.8,14 -22.6,29.3 -26.1,34 -16.3,21.3 -61.2,79.7 -69.9,91 -18.5,24 -61.4,79.5 -64.7,83.8 -1.8,2.4 -3,4.9 -2.6,5.5 0.9,1.6 11.5,16.8 28.8,41.2 7.8,11 23.6,33.3 35,49.5 11.5,16.2 29,41 39,55 10,14 23.7,33.4 30.5,43 21.9,31 65.1,91.9 129,182 34.5,48.6 39.4,56 39.8,59.8 l 0.4,4.2 h -99.9 c -94,0 -100.1,-0.1 -101.5,-1.7 -0.9,-1 -11.9,-17.1 -24.5,-35.8 -12.6,-18.7 -26.5,-39.2 -30.8,-45.5 -4.3,-6.3 -15,-22.1 -23.8,-35 -8.8,-12.9 -18.5,-27.1 -21.5,-31.5 -12.1,-17.5 -50.7,-74.3 -65.4,-96 -52.5,-77.7 -52.7,-78 -55.6,-78 -2.2,0 -4.6,2.5 -15.1,15.5 -6.8,8.5 -24.8,30.8 -39.9,49.5 -15.2,18.7 -30.3,37.4 -33.6,41.5 -22,27.3 -74.8,91.5 -83.3,101.2 -22.1,25.1 -39.4,41.9 -56.3,54.4 -8.8,6.6 -17.7,12.8 -19.8,14 -2,1.2 -8,4.6 -13.2,7.6 -5.2,3 -11.7,6.5 -14.5,7.7 -2.7,1.3 -7.7,3.6 -11,5.2 -13.6,6.4 -42.8,16.3 -55.5,18.8 -37,7.3 -46.47397,8.47809 -92.27397,8.37809 -20.4,0.18905 -28.82192,0.38261 -39.54111,0.36031 z"
       fill="#15c3a1"
       id="path3"
       sodipodi:nodetypes="scscccccccccccccccsccccccscccsccsccccccsccccscsssccsccccccsccccs" />
  </g>
  <defs
     id="defs3">
    <clipPath
       id="clip0_2618_2">
      <rect
         width="1280"
         height="832"
         fill="white"
         id="rect3" />
    </clipPath>
  </defs>
</svg>
