<svg width="1280" height="832" viewBox="0 0 1280 832" fill="none" xmlns="http://www.w3.org/2000/svg">
<g clip-path="url(#clip0_2618_2)">
<path d="M0 416V0H158C275.1 0 315.9 0.3 315.8 1.1C315.6 1.9 321 3.1 331 4.6C420.8 17.9 494.2 53.9 554 114C593.7 153.9 623.9 203.4 644.8 263.2C651.8 283.2 660.2 316.7 663.5 338C663.9 340.5 664.6 343.1 664.9 343.8C666.2 346.2 667 268.3 667 132.8V0H669.5H672L671.4 143.7C671.1 222.8 670.5 302.6 670.1 321C669.6 347.2 669.8 356.9 670.9 365.5C672 373.6 672.4 389 672.4 423.5C672.5 473.1 672.2 478.2 666.9 514C658.8 568.1 641.1 623.3 619.2 662.5C592 711.3 559.7 746.8 516.5 775.5C481.5 798.8 446 813.3 398.6 824C391.5 825.5 385.4 827.4 385 828.1C384.4 829 380.9 829.1 370.9 828.6C357.1 827.9 336.3 829.3 334.5 831.1C334 831.6 270 832 166.8 832H0V416ZM297.3 669.4C350.1 663.6 392.8 645 426.2 613.2C484.1 558.2 510.8 462.3 495.5 364.5C479.7 263.4 419.2 192.1 329 168.1C301.7 160.8 300.6 160.7 236.1 160.3L177.7 159.9L178.3 290.6C178.7 362.5 179 477.5 179 546.2V671H231C271.6 671 286.2 670.7 297.3 669.4Z" fill="#46CDB7"/>
<path d="M836.7 311.3C836.3 311 836 240.8 836 155.3C836 0.7 836 0 838 0C840 0 840 0.8 840.3 140.8C840.4 218.2 840.5 287.2 840.4 294.3C840.4 301.3 840.7 307 841 307C841.3 307 842.1 306.5 842.8 305.8C843.7 304.9 844 305.4 844 308.3C844 311.8 843.8 312 840.7 312C838.8 312 837 311.7 836.7 311.3Z" fill="#46CDB7"/>
<path d="M383.5 829C382.4 828.5 379.2 828.1 376.3 828.1C369.1 828 368.8 826.4 375.7 825C423.2 815.9 453.6 805.9 487 788.3C552.6 753.9 603.4 696.5 633.6 622.9C650.7 581 660.8 539.5 667.7 482.5C670.1 462 670.2 387.1 667.8 368C666.5 357.6 666.4 350 667.1 322.5C667.5 304.4 668 244.5 668.1 189.5C668.3 134.5 668.6 69.3998 668.8 44.7998L669.1 -0.00019171H754.1H839L839.1 140.3C839.1 217.4 839.1 286.6 839 294.2C838.9 303.9 839.2 308 840.1 308.6C840.9 309 841.1 308.9 840.6 308.2C840.2 307.5 840.3 307 840.8 307C841.3 307 846.8 300.4 853.1 292.3C859.3 284.1 869.6 270.8 876 262.5C882.4 254.3 897 235.4 908.5 220.5C920 205.7 934.6 186.8 940.9 178.6C947.3 170.5 955 160.6 958 156.6C961 152.7 972.9 137.3 984.4 122.5C995.9 107.6 1009.7 89.8998 1015 82.9998C1020.3 76.0998 1034.8 57.4998 1047.1 41.4998C1059.5 25.5998 1071.7 9.69981 1074.3 6.29981L1079.1 -0.00019171H1179.6C1291.2 -0.00019171 1283.9 -0.500192 1276 6.59981C1271.2 10.8998 1266.6 16.7998 1206.5 95.4998C1181.3 128.5 1151.8 167 1141 181C1130.2 195 1118.4 210.3 1114.9 215C1098.6 236.3 1053.7 294.7 1045 306C1026.5 330 983.6 385.5 980.3 389.8C978.5 392.2 977.3 394.7 977.7 395.3C978.6 396.9 989.2 412.1 1006.5 436.5C1014.3 447.5 1030.1 469.8 1041.5 486C1053 502.2 1070.5 527 1080.5 541C1090.5 555 1104.2 574.4 1111 584C1132.9 615 1176.1 675.9 1240 766C1274.5 814.6 1279.4 822 1279.8 825.8L1280.2 830H1180.3C1086.3 830 1080.2 829.9 1078.8 828.3C1077.9 827.3 1066.9 811.2 1054.3 792.5C1041.7 773.8 1027.8 753.3 1023.5 747C1019.2 740.7 1008.5 724.9 999.7 712C990.9 699.1 981.2 684.9 978.2 680.5C966.1 663 927.5 606.2 912.8 584.5C860.3 506.8 860.1 506.5 857.2 506.5C855 506.5 852.6 509 842.1 522C835.3 530.5 817.3 552.8 802.2 571.5C787 590.2 771.9 608.9 768.6 613C746.6 640.3 693.8 704.5 685.3 714.2C663.2 739.3 645.9 756.1 629 768.6C620.2 775.2 611.3 781.4 609.2 782.6C607.2 783.8 601.2 787.2 596 790.2C590.8 793.2 584.3 796.7 581.5 797.9C578.8 799.2 573.8 801.5 570.5 803.1C556.9 809.5 527.7 819.4 515 821.9C478 829.2 468.4 830 422.6 829.9C402.2 829.9 384.6 829.5 383.5 829Z" fill="#15C3A1"/>
</g>
<defs>
<clipPath id="clip0_2618_2">
<rect width="1280" height="832" fill="white"/>
</clipPath>
</defs>
</svg>
